#!OML:ASF F:\VICON\USERDATA\INSTALL\rory3\rory3.ASF
:FULLY-SPECIFIED
:DEGREES
3115
root -4.71989 16.5356 -0.495566 10.3277 -40.5592 -5.50615
lowerback 10.535 4.33811 -1.27964
upperback 2.51065 5.60404 0.850574
thorax -3.47443 2.77117 0.844971
lowerneck -22.9706 -2.67965 -8.671
upperneck 19.0088 -2.58569 7.60963
head 10.0547 -0.924156 3.74762
rclavicle -5.45167e-014 -4.77083e-015
rhumerus -2.10711 2.8652 -86.7742
rradius 120.99
rwrist -11.4927
rhand -12.8049 29.1822
rfingers 7.12502
rthumb 13.2813 -0.374612
lclavicle -5.45167e-014 -4.77083e-015
lhumerus -12.5412 -11.597 86.4502
lradius 126.653
lwrist -4.34254
lhand -9.98354 7.08872
lfingers 7.12502
lthumb 15.9995 36.448
rfemur 1.44279 -2.64657 16.2936
rtibia 39.2087
rfoot -22.4175 7.90923
rtoes -15.1756
lfemur -45.7967 -1.17045 -2.93643
ltibia 46.4544
lfoot 2.26139 -3.83594
ltoes -26.9527
3116
root -4.69091 16.6358 -0.562833 10.5522 -41.1248 -5.53771
lowerback 10.4607 4.31696 -1.14057
upperback 2.54573 5.59387 0.928028
thorax -3.39139 2.76485 0.856896
lowerneck -22.8773 -2.53324 -8.7346
upperneck 18.9124 -2.32782 7.46236
head 9.97809 -0.828509 3.74118
rclavicle -9.19379e-016 8.05078e-015
rhumerus -2.42632 3.76149 -86.774
rradius 120.933
rwrist -10.4376
rhand -14.1481 29.8117
rfingers 7.12502
rthumb 11.9863 0.174919
lclavicle -9.19379e-016 8.05078e-015
lhumerus -12.9822 -11.7383 87.0269
lradius 126.597
lwrist -4.16289
lhand -9.25919 6.97617
lfingers 7.12502
lthumb 16.6969 36.2781
rfemur 1.12035 -2.38289 16.2565
rtibia 38.3838
rfoot -21.382 7.84966
rtoes -15.3516
lfemur -45.2149 -1.51074 -2.5141
ltibia 44.8723
lfoot 3.71819 -3.12262
ltoes -26.6873
3117
root -4.65977 16.7452 -0.625986 10.6858 -41.6567 -5.43957
lowerback 10.4742 4.25758 -1.03091
upperback 2.59817 5.52403 0.908583
thorax -3.33009 2.7285 0.787481
lowerneck -23.0587 -2.35204 -8.68157
upperneck 18.9802 -2.06213 7.38217
head 10.0084 -0.709097 3.74622
rclavicle -3.55949e-014 8.84592e-015
rhumerus -2.66596 4.55928 -86.9305
rradius 120.902
rwrist -10.1079
rhand -14.3387 29.7685
rfingers 7.12502
rthumb 11.8025 0.121105
lclavicle -3.55949e-014 8.84592e-015
lhumerus -13.2974 -11.879 87.3557
lradius 126.486
lwrist -4.03162
lhand -9.51925 6.74249
lfingers 7.12502
lthumb 16.4466 36.0653
rfemur 0.839382 -2.23922 16.0762
rtibia 37.4963
rfoot -20.2209 7.8735
rtoes -15.1754
lfemur -44.6388 -2.02894 -2.15953
ltibia 43.2725
lfoot 5.5226 -2.20462
ltoes -26.3225
3118
root -4.62629 16.8534 -0.683298 10.7115 -42.1095 -5.17186
lowerback 10.4845 4.16339 -0.970356
upperback 2.61318 5.40274 0.857658
thorax -3.30654 2.66751 0.718138
lowerneck -23.1005 -2.17575 -8.623
upperneck 19.016 -1.81197 7.28453
head 10.0039 -0.600788 3.74001
rclavicle 7.08792e-015 4.74598e-015
rhumerus -2.95287 5.3112 -87.1011
rradius 120.808
rwrist -10.0123
rhand -13.6535 29.7215
rfingers 7.12502
rthumb 12.4632 0.113102
lclavicle 7.08792e-015 4.74598e-015
lhumerus -13.6371 -12.1013 87.6301
lradius 126.316
lwrist -4.23203
lhand -10.7699 6.73023
lfingers 7.12502
lthumb 15.2421 36.1487
rfemur 0.603177 -2.1782 15.7567
rtibia 36.5876
rfoot -18.9813 7.8235
rtoes -14.1193
lfemur -44.092 -2.71852 -1.93369
ltibia 41.6843
lfoot 7.43451 -1.18715
ltoes -26.2852
3119
root -4.58907 16.9602 -0.73282 10.63 -42.4853 -4.8184
lowerback 10.5607 4.06615 -0.831779
upperback 2.63286 5.28344 0.770745
thorax -3.30439 2.60669 0.563666
lowerneck -23.1093 -2.02124 -8.60216
upperneck 18.9729 -1.59927 7.27206
head 9.97012 -0.502082 3.76301
rclavicle -1.95795e-014 1.15761e-014
rhumerus -3.22332 5.92107 -87.2557
rradius 120.802
rwrist -10.2246
rhand -13.6257 29.9879
rfingers 7.12502
rthumb 12.49 0.381135
lclavicle -1.95795e-014 1.15761e-014
lhumerus -13.9199 -12.4547 87.863
lradius 126.096
lwrist -4.48739
lhand -11.5571 6.97579
lfingers 7.12502
lthumb 14.4838 36.4503
rfemur 0.427201 -2.29285 15.3202
rtibia 35.7163
rfoot -17.5597 7.79091
rtoes -12.7891
lfemur -43.5078 -3.58051 -1.75086
ltibia 40.1688
lfoot 9.07479 -0.194784
ltoes -26.3838
3120
root -4.55391 17.0704 -0.777314 10.519 -43.0436 -4.33167
lowerback 10.5816 4.02158 -0.867035
upperback 2.60263 5.21627 0.660747
thorax -3.33875 2.57348 0.476135
lowerneck -23.1829 -1.82517 -8.46526
upperneck 19.0336 -1.33004 7.10356
head 9.978 -0.387406 3.72166
rclavicle 2.43263e-014 1.31446e-014
rhumerus -3.53038 6.43686 -87.3912
rradius 120.851
rwrist -11.1511
rhand -13.4928 29.9487
rfingers 7.12502
rthumb 12.6181 0.349782
lclavicle 2.43263e-014 1.31446e-014
lhumerus -14.1575 -12.7665 87.9686
lradius 125.84
lwrist -4.57448
lhand -10.9291 7.2738
lfingers 7.12502
lthumb 15.0888 36.7039
rfemur 0.0777491 -2.44775 14.6918
rtibia 34.9728
rfoot -15.9763 7.83852
rtoes -11.7833
lfemur -42.9153 -4.3612 -1.68148
ltibia 38.805
lfoot 10.1578 0.854447
ltoes -25.6366
3121
root -4.52385 17.1744 -0.820731 10.5982 -43.7664 -4.09255
lowerback 10.494 4.0352 -0.887887
upperback 2.59341 5.23225 0.645229
thorax -3.30086 2.58167 0.475491
lowerneck -23.5076 -1.62267 -8.18131
upperneck 19.3462 -1.0302 6.68486
head 10.1174 -0.277393 3.57854
rclavicle 4.05521e-014 -2.48481e-015
rhumerus -3.85308 7.01692 -87.4237
rradius 120.711
rwrist -11.5366
rhand -12.7077 29.4638
rfingers 7.12502
rthumb 13.375 -0.0869045
lclavicle 4.05521e-014 -2.48481e-015
lhumerus -14.3741 -13.0408 88.0696
lradius 125.603
lwrist -4.5555
lhand -11.3431 7.35126
lfingers 7.12502
lthumb 14.69 36.8108
rfemur -0.423179 -2.41799 14.2782
rtibia 34.3932
rfoot -14.5102 7.71585
rtoes -10.6976
lfemur -42.3242 -4.79271 -1.51391
ltibia 37.7025
lfoot 10.3677 1.40863
ltoes -24.8894
3122
root -4.49528 17.2647 -0.86938 10.7441 -44.5141 -4.05678
lowerback 10.522 4.07258 -0.836326
upperback 2.58263 5.28755 0.676635
thorax -3.32688 2.60843 0.469329
lowerneck -23.8001 -1.4172 -7.90529
upperneck 19.6264 -0.729715 6.28741
head 10.2425 -0.16653 3.44369
rclavicle -2.77553e-014 -4.67144e-015
rhumerus -4.15829 7.66328 -87.4653
rradius 120.418
rwrist -11.1656
rhand -12.4867 29.2188
rfingers 7.12502
rthumb 13.588 -0.317793
lclavicle -2.77553e-014 -4.67144e-015
lhumerus -14.8319 -13.1297 88.3639
lradius 125.419
lwrist -4.71269
lhand -11.4985 7.65564
lfingers 7.12502
lthumb 14.5402 37.1261
rfemur -0.906575 -2.33167 14.059
rtibia 33.9889
rfoot -13.5021 7.4441
rtoes -8.75159
lfemur -41.7577 -4.89601 -1.33492
ltibia 36.9785
lfoot 10.0154 1.10653
ltoes -24.5883
